<region> lovel=1 hivel=5 amp_velcurve_5=1 sample=../samples/toms/tm16bop/stx/snare_on/rms/tm16wbop_stxr_rms_001.wav
<region> lovel=6 hivel=10 amp_velcurve_10=1 sample=../samples/toms/tm16bop/stx/snare_on/rms/tm16wbop_stxr_rms_002.wav
<region> lovel=11 hivel=15 amp_velcurve_15=1 sample=../samples/toms/tm16bop/stx/snare_on/rms/tm16wbop_stxr_rms_003.wav
<region> lovel=16 hivel=20 amp_velcurve_20=1 sample=../samples/toms/tm16bop/stx/snare_on/rms/tm16wbop_stxr_rms_004.wav
<region> lovel=21 hivel=25 amp_velcurve_25=1 sample=../samples/toms/tm16bop/stx/snare_on/rms/tm16wbop_stxr_rms_005.wav
<region> lovel=26 hivel=30 amp_velcurve_30=1 sample=../samples/toms/tm16bop/stx/snare_on/rms/tm16wbop_stxr_rms_006.wav
<region> lovel=31 hivel=35 amp_velcurve_35=1 sample=../samples/toms/tm16bop/stx/snare_on/rms/tm16wbop_stxr_rms_007.wav
<region> lovel=36 hivel=40 amp_velcurve_40=1 sample=../samples/toms/tm16bop/stx/snare_on/rms/tm16wbop_stxr_rms_008.wav
<region> lovel=41 hivel=45 amp_velcurve_45=1 sample=../samples/toms/tm16bop/stx/snare_on/rms/tm16wbop_stxr_rms_009.wav
<region> lovel=46 hivel=50 amp_velcurve_50=1 sample=../samples/toms/tm16bop/stx/snare_on/rms/tm16wbop_stxr_rms_010.wav
<region> lovel=51 hivel=55 amp_velcurve_55=1 sample=../samples/toms/tm16bop/stx/snare_on/rms/tm16wbop_stxr_rms_011.wav
<region> lovel=56 hivel=60 amp_velcurve_60=1 sample=../samples/toms/tm16bop/stx/snare_on/rms/tm16wbop_stxr_rms_012.wav
<region> lovel=61 hivel=65 amp_velcurve_65=1 sample=../samples/toms/tm16bop/stx/snare_on/rms/tm16wbop_stxr_rms_013.wav
<region> lovel=66 hivel=70 amp_velcurve_70=1 sample=../samples/toms/tm16bop/stx/snare_on/rms/tm16wbop_stxr_rms_014.wav
<region> lovel=71 hivel=75 amp_velcurve_75=1 sample=../samples/toms/tm16bop/stx/snare_on/rms/tm16wbop_stxr_rms_015.wav
<region> lovel=76 hivel=80 amp_velcurve_80=1 sample=../samples/toms/tm16bop/stx/snare_on/rms/tm16wbop_stxr_rms_016.wav
<region> lovel=81 hivel=85 amp_velcurve_85=1 sample=../samples/toms/tm16bop/stx/snare_on/rms/tm16wbop_stxr_rms_017.wav
<region> lovel=86 hivel=90 amp_velcurve_90=1 sample=../samples/toms/tm16bop/stx/snare_on/rms/tm16wbop_stxr_rms_018.wav
<region> lovel=91 hivel=95 amp_velcurve_95=1 sample=../samples/toms/tm16bop/stx/snare_on/rms/tm16wbop_stxr_rms_019.wav
<region> lovel=96 hivel=100 amp_velcurve_100=1 sample=../samples/toms/tm16bop/stx/snare_on/rms/tm16wbop_stxr_rms_020.wav
<region> lovel=101 hivel=105 amp_velcurve_105=1 sample=../samples/toms/tm16bop/stx/snare_on/rms/tm16wbop_stxr_rms_021.wav
<region> lovel=106 hivel=110 amp_velcurve_110=1 sample=../samples/toms/tm16bop/stx/snare_on/rms/tm16wbop_stxr_rms_022.wav
<region> lovel=111 hivel=115 amp_velcurve_115=1 sample=../samples/toms/tm16bop/stx/snare_on/rms/tm16wbop_stxr_rms_023.wav
<region> lovel=116 hivel=121 amp_velcurve_121=1 sample=../samples/toms/tm16bop/stx/snare_on/rms/tm16wbop_stxr_rms_024.wav
<region> lovel=122 hivel=127 amp_velcurve_127=1 sample=../samples/toms/tm16bop/stx/snare_on/rms/tm16wbop_stxr_rms_025.wav
